<?xml version="1.0" encoding="UTF-8" standalone="no"?>
<!-- Created with Inkscape (http://www.inkscape.org/) -->

<svg
   xmlns:dc="http://purl.org/dc/elements/1.1/"
   xmlns:cc="http://creativecommons.org/ns#"
   xmlns:rdf="http://www.w3.org/1999/02/22-rdf-syntax-ns#"
   xmlns:svg="http://www.w3.org/2000/svg"
   xmlns="http://www.w3.org/2000/svg"
   xmlns:sodipodi="http://sodipodi.sourceforge.net/DTD/sodipodi-0.dtd"
   xmlns:inkscape="http://www.inkscape.org/namespaces/inkscape"
   version="1.1"
   id="svg926"
   width="221.33333"
   height="229.33333"
   viewBox="0 0 221.33333 229.33333"
   sodipodi:docname="logo.svg"
   inkscape:version="0.92.5 (2060ec1f9f, 2020-04-08)">
  <metadata
     id="metadata932">
    <rdf:RDF>
      <cc:Work
         rdf:about="">
        <dc:format>image/svg+xml</dc:format>
        <dc:type
           rdf:resource="http://purl.org/dc/dcmitype/StillImage" />
        <dc:title></dc:title>
      </cc:Work>
    </rdf:RDF>
  </metadata>
  <defs
     id="defs930" />
  <sodipodi:namedview
     pagecolor="#ffffff"
     bordercolor="#666666"
     borderopacity="1"
     objecttolerance="10"
     gridtolerance="10"
     guidetolerance="10"
     inkscape:pageopacity="0"
     inkscape:pageshadow="2"
     inkscape:window-width="1920"
     inkscape:window-height="1017"
     id="namedview928"
     showgrid="false"
     inkscape:zoom="0.90806688"
     inkscape:cx="66.25563"
     inkscape:cy="4.5220768"
     inkscape:window-x="0"
     inkscape:window-y="0"
     inkscape:window-maximized="1"
     inkscape:current-layer="svg926" />
  <path
     style="fill:#000000;stroke-width:1.33333337"
     d="m 87.767902,227.01766 c 0,-3.58414 3.41069,-4.37254 8.08766,-1.86952 4.483868,2.39971 3.08347,4.96511 -2.75432,5.04568 -4.78356,0.066 -5.33334,-0.2614 -5.33334,-3.17616 z m 51.513798,-4.29688 0.82627,-7.9053 -14.16225,0.39272 c -7.78924,0.21598 -14.69261,0.72049 -15.34082,1.1211 -0.64821,0.40062 -3.80171,0.74062 -7.00778,0.75555 -8.929588,0.0416 -11.829218,0.47745 -11.829218,1.77808 0,0.65465 -0.95374,0.82429 -2.11942,0.37697 -1.16569,-0.4473 -6.94811,0.3885 -12.84984,1.85735 -12.24924,3.04867 -18.84542,3.44805 -18.06058,1.09353 0.46593,-1.3978 17.39543,-6.52406 53.029848,-16.05749 10.31034,-2.75837 10.87135,-3.07004 6.21526,-3.45291 -6.73864,-0.55412 -30.733088,3.01584 -48.987188,7.28846 -13.87029,3.24652 -14.76668,3.30458 -18.02775,1.16786 -1.88743,-1.2367 -3.22964,-2.44174 -2.98268,-2.67789 0.24696,-0.23615 13.34902,-3.26531 29.11569,-6.73147 15.76666,-3.46616 32.266668,-7.13644 36.666658,-8.15617 4.4,-1.01973 11.3,-2.49799 15.33334,-3.28503 4.03333,-0.78702 7.63333,-1.74928 8,-2.13833 1.84876,-1.96163 -52.704558,2.22767 -64.510518,4.95392 -3.01922,0.69721 -7.80368,1.28232 -10.63213,1.30024 -4.14879,0.0263 -4.98625,-0.375 -4.33334,-2.07645 0.44513,-1.15998 0.80932,-2.35998 0.80932,-2.66667 0,-0.30668 1.39427,-0.55761 3.09838,-0.55761 1.70411,0 8.75411,-0.91392 15.66667,-2.03094 6.91255,-1.11701 17.96828,-2.88418 24.568288,-3.92704 29.53481,-4.66674 61.51527,-10.44597 63.46559,-11.46892 1.6202,-0.8498 2.34775,-4.18377 3.02951,-13.88268 1.5658,-22.27529 8.51859,-51.75039 12.71925,-53.92096 1.16544,-0.60221 7.21898,-1.49861 13.45231,-1.99199 17.47707,-1.38337 24,-2.352933 24,-3.567303 0,-0.61212 -3.75,-4.19654 -8.33333,-7.965375 -9.84484,-8.095324 -17.48187,-14.504547 -23,-19.302281 -2.2,-1.91279 -5.35,-4.401366 -7,-5.530168 -1.65,-1.128803 -3,-2.75146 -3,-3.605903 0,-0.854444 3.61726,-3.434328 8.03837,-5.733076 l 8.03839,-4.17954 -14.10174,-5.446912 c -7.75594,-2.995801 -14.5104,-5.446912 -15.00989,-5.446912 -2.41392,0 -18.96453,-8.85295 -18.96481,-10.144305 -1.8e-4,-0.8127 3.14968,-3.728145 6.99968,-6.478766 l 7,-5.001128 -20.3428,0.879457 c -11.18854,0.483701 -26.15563,1.752053 -33.26021,2.818561 -8.700468,1.306076 -13.357208,1.499295 -14.264638,0.591868 -0.90742,-0.907425 -0.15924,-3.769513 2.29186,-8.767208 l 3.6391,-7.4199723 -4.1434,2.4274143 c -8.39445,4.9179 -31.93276,23.314317 -42.25339,33.023233 -5.84546,5.498985 -11.01175,9.61451 -11.48065,9.145612 -0.46889,-0.468899 -0.87906,-2.102543 -0.91147,-3.630322 -0.081,-3.816654 -3.64287,3.073412 -10.54481,20.397616 -7.0147,17.607232 -6.82488,21.026153 0.40331,7.264281 9.68711,-18.443455 20.34964,-30.190211 35.53376,-39.147034 25.5538,-15.073692 53.768878,-14.613661 78.355668,1.277545 31.73065,20.508513 37.94519,49.019401 18.93111,86.851708 -8.68018,17.27092 -22.12723,32.09316 -40.84123,45.01792 -4.83843,3.34164 -11.75771,5.08514 -12.89271,3.24868 -0.42382,-0.68575 0.35412,-6.2962 1.72876,-12.46766 5.9304,-26.62465 8.7184,-50.55753 8.7184,-74.840758 0,-20.002298 -0.33105,-23.950841 -2.16147,-25.780518 -1.9928,-1.991998 -2.37893,-1.855193 -4.94833,1.753188 -3.78337,5.313252 -5.48538,13.523197 -5.52427,26.647254 -0.0179,6.050001 -0.58492,11.000001 -1.25998,11.000001 -1.78242,0 -2.73555,-6.08522 -2.5134,-16.046514 0.10688,-4.792249 -0.44119,-9.848769 -1.21792,-11.236712 -1.272618,-2.274045 -1.695988,-1.967334 -4.282348,3.102342 -1.97525,3.871825 -3.16456,9.453783 -3.81452,17.903374 -0.51943,6.752633 -1.54442,12.277513 -2.27776,12.277513 -0.76005,0 -1.67402,-6.306043 -2.12572,-14.66667 -0.85891,-15.898132 -1.85131,-20.669423 -4.29746,-20.661669 -4.1024,0.013 -9.69387,22.949146 -8.36871,34.328339 0.64945,5.57679 0.42541,7 -1.10193,7 -1.7836,0 -2.91563,-3.90781 -5.60056,-19.333333 -1.16596,-6.698707 -3.31319,-12.66667 -4.55737,-12.66667 -2.11303,0 -5.07941,12.91545 -6.71304,29.228243 -2.38599,23.82552 1.45286,48.02549 8.92871,56.28621 2.58237,2.85349 0.84703,6.08128 -2.56543,4.7718 -2.17745,-0.83558 -6.78458,-16.8889 -9.00294,-31.37034 -3.50149,-22.85765 2.3436,-62.915913 9.18035,-62.915913 3.02179,0 6.0849,4.219545 6.87825,9.475019 l 0.88435,5.858314 0.99829,-5.333334 c 1.3449,-7.18515 3.31493,-12.11853 6.41102,-16.054569 3.90956,-4.970197 7.06312,-4.193966 9.69616,2.386652 l 2.26686,5.665418 2.0448,-3.998751 c 3.39011,-6.629597 5.97309,-8.888733 9.228678,-8.071632 2.12785,0.534056 3.18846,0.04913 3.74792,-1.713587 1.17507,-3.702297 6.72482,-8.389354 8.93106,-7.542741 7.18646,2.757704 9.5427,23.786313 5.88112,52.487004 -1.2507,9.80345 -3.89256,27.65346 -5.87079,39.66667 -1.97823,12.01321 -3.22784,21.8422 -2.77691,21.8422 2.5352,0 19.12678,-12.72997 27.85636,-21.37293 7.72115,-7.64454 11.60785,-12.89288 16.29224,-22 11.7934,-22.92804 14.34432,-38.62861 9.05724,-55.746195 -6.22407,-20.151159 -33.42964,-39.374462 -59.11937,-41.773406 -10.791348,-1.007712 -21.851958,1.885311 -36.877568,9.645736 -15.28445,7.894107 -30.05094,22.856008 -37.94501,38.447141 -4.96497,9.806045 -5.33837,11.352292 -5.80853,24.053524 -0.85762,23.16806 5.10608,39.5666 19.69873,54.16612 4.81206,4.81432 10.20549,9.65848 11.98539,10.76478 l 3.23619,2.01148 -6.30601,11.56855 c -3.46831,6.36269 -7.1746,11.56853 -8.23619,11.56853 -1.0616,0 -1.93018,-0.58108 -1.93018,-1.29128 0,-0.7102 -3.28183,-3.7157 -7.29297,-6.6789 -10.36749,-7.65892 -11.09717,-9.53346 -6.79083,-17.44562 l 3.50696,-6.44345 -4.37824,-5.7758 c -2.40804,-3.17669 -5.56469,-8.00836 -7.01479,-10.73704 -1.45009,-2.72868 -3.04282,-4.96124 -3.53939,-4.96124 -0.49656,0 -2.76525,3.3 -5.04152,7.33333 -4.3124202,7.64119 -5.2680402,8.2377 -9.5368702,5.9531 -3.66455004,-1.96122 -3.36847004,-5.74956 2.90436,-37.16129 5.6751002,-28.41858 7.1468902,-32.713953 9.9130802,-28.930966 1.26256,1.726649 2.06685,0.261248 4.50773,-8.212933 3.81005,-13.227691 15.86805,-44.016424 17.67606,-45.133836 1.84543,-1.140537 3.43344,1.647976 4.48583,7.877005 l 0.86371,5.112286 8.20178,-7.814452 c 8.13299,-7.748923 24.18568,-20.919264 32.5298,-26.688907 2.38625,-1.6500003 6.52237,-4.5000003 9.19137,-6.3333333 9.038648,-6.2086386 10.530578,-4.08181369 5.07282,7.2315743 -1.87427,3.88519 -3.09973,7.372029 -2.72323,7.748529 0.3765,0.3765 9.859998,-0.294128 21.074448,-1.490286 21.09417,-2.249952 49.07195,-2.909789 49.03615,-1.156484 -0.0384,1.880483 -1.982,3.91591 -8.33683,8.730664 -5.50971,4.174448 -6.04297,4.979484 -4,6.038435 2.06073,1.068157 24.87359,11.025385 39.35724,17.17843 2.75,1.168275 5,2.619179 5,3.224232 0,1.514222 -5.00557,4.526003 -11,6.618539 -2.75,0.959972 -5,2.155864 -5,2.657538 0,0.501674 1.65,1.974587 3.66667,3.273139 11.16309,7.188028 36.33333,30.809623 36.33333,34.097853 0,2.403443 -2.50497,3.792303 -7.10905,3.941553 -2.81363,0.0912 -2.81963,0.1276 -0.22428,1.3607 2.32341,1.1039 2.2376,1.17977 -0.66667,0.58941 -6.48349,-1.31792 -28.07164,0.92007 -30.89005,3.20228 -3.60294,2.91748 -8.15204,25.00156 -12.55406,60.94474 -0.57649,4.70718 -1.20992,5.63011 -4.28289,6.24032 -1.98348,0.39388 -13.20633,2.45228 -24.93967,4.57424 l -21.33333,3.85811 15.09293,0.97908 c 23.69863,1.53733 25.16567,3.31733 5.57084,6.75927 -7.33492,1.28841 -16.18492,3.12642 -19.66666,4.08446 -6.08516,1.6744 -5.64593,1.74651 11.33622,1.86111 10.46866,0.0707 17.66667,0.64729 17.66667,1.41532 0,1.47044 -7.99821,3.93628 -27.3151,8.42123 l -13.3151,3.09145 17.04079,-0.56731 17.04078,-0.56732 -0.39236,10.4818 c -0.32633,8.7184 -0.78313,10.55643 -2.71524,10.92535 -2.06938,0.39515 -2.23273,-0.4192 -1.49664,-7.46175 z m -87.799288,-45.63722 4.38718,-7.31566 -3.05084,-1.91642 c -1.67797,-1.05403 -6.69494,-5.56528 -11.14884,-10.025 -13.54863,-13.56635 -20.49472,-31.90274 -20.54552,-54.2364 -0.0206,-9.053163 -0.31844,-10.255043 -2.69538,-10.876623 -1.96698,-0.51438 -2.8289,0.0604 -3.26587,2.17782 -0.3265,1.58215 -1.486,7.376633 -2.57667,12.876633 -1.09067,5.5 -3.3598002,16.43122 -5.0425102,24.29161 -2.22919,10.41308 -2.66057,14.69053 -1.58957,15.76154 1.07101,1.071 2.71207,-0.79373 6.0469702,-6.87114 2.51738,-4.58759 5.24613,-8.5641 6.06389,-8.83669 0.81776,-0.27258 3.06771,2.65185 4.99989,6.49873 1.93218,3.84688 5.58074,9.81108 8.10791,13.25377 2.52717,3.44269 4.58763,7.07905 4.57879,8.08081 -0.009,1.00175 -1.55122,4.50723 -3.42753,7.78996 -2.469,4.3197 -2.94369,6.12454 -1.71824,6.53302 0.93127,0.31042 4.12366,2.8689 7.09419,5.68552 2.97054,2.81661 6.29963,4.96881 7.39798,4.78264 1.09835,-0.18616 3.97123,-3.63052 6.38417,-7.65412 z M 22.012062,88.85124 c -0.42564,-1.063644 -0.74158,-0.747702 -0.80556,0.805556 -0.0579,1.405554 0.25724,2.193054 0.70029,1.75 0.44306,-0.443056 0.49043,-1.593056 0.10527,-2.555556 z"
     id="path936"
     inkscape:connector-curvature="0" />
</svg>
